/* XPM */
static char *_4212b3456674d92b0af00d559499a56wpGdAlRUqLntFM8y[] = {
/* columns rows colors chars-per-pixel */
"64 56 256 2 ",
"   c #0B0000",
".  c #070000",
"X  c #150708",
"o  c #13021A",
"O  c #0E0014",
"+  c #380605",
"@  c #2C1514",
"#  c #190326",
"$  c #17042E",
"%  c #311330",
"&  c #322832",
"*  c #480B09",
"=  c #540B0A",
"-  c #5B0D0C",
";  c #520806",
":  c #58130A",
">  c #4A1914",
",  c #5C1313",
"<  c #591716",
"1  c #4C110F",
"2  c #650E0D",
"3  c #64120F",
"4  c #641414",
"5  c #6A1A16",
"6  c #651B1A",
"7  c #6B1B1B",
"8  c #691614",
"9  c #741C1B",
"0  c #781B1B",
"q  c #650F10",
"w  c #53251C",
"e  c #6A221B",
"r  c #73221E",
"t  c #6D330E",
"y  c #6E1F20",
"u  c #543031",
"i  c #6D2423",
"p  c #6A2824",
"a  c #742322",
"s  c #7C2323",
"d  c #7C2B2B",
"f  c #752A27",
"g  c #77332B",
"h  c #7C3834",
"j  c #6C322D",
"k  c #734635",
"l  c #250647",
"z  c #2C1149",
"x  c #2D0A52",
"c  c #32095A",
"v  c #38145B",
"b  c #33194B",
"n  c #380B67",
"m  c #3C1566",
"M  c #3E0D70",
"N  c #382848",
"B  c #4B325D",
"V  c #461579",
"C  c #421572",
"Z  c #48256C",
"A  c #58265E",
"S  c #5A4545",
"D  c #705149",
"F  c #55426D",
"G  c #6C5071",
"H  c #736C6F",
"J  c #796453",
"K  c #852425",
"L  c #8A2525",
"P  c #8A2728",
"I  c #852B2B",
"U  c #8A2A2B",
"Y  c #842827",
"T  c #932C2D",
"R  c #912827",
"E  c #83312E",
"W  c #88362B",
"Q  c #8B2F31",
"!  c #843332",
"~  c #8B3231",
"^  c #8A3C38",
"/  c #953333",
"(  c #9A3938",
")  c #912F30",
"_  c #A33C3D",
"`  c #82341E",
"'  c #894737",
"]  c #98463A",
"[  c #8E5031",
"{  c #A34B3A",
"}  c #9B7238",
"|  c #AB713F",
" . c #A33F41",
".. c #9F3F40",
"X. c #874A43",
"o. c #984945",
"O. c #885649",
"+. c #98594B",
"@. c #975A53",
"#. c #8E5D54",
"$. c #A54343",
"%. c #A94847",
"&. c #B44C4C",
"*. c #A9554A",
"=. c #B2584C",
"-. c #A85955",
";. c #BB5454",
":. c #BC5C5B",
">. c #B55856",
",. c #B64F50",
"<. c #9A6358",
"1. c #906650",
"2. c #AA6545",
"3. c #A46659",
"4. c #B9665A",
"5. c #B77754",
"6. c #977868",
"7. c #8F716C",
"8. c #AA6B64",
"9. c #BB6764",
"0. c #A67566",
"q. c #B8776A",
"w. c #B77B73",
"e. c #A9717A",
"r. c #9A576B",
"t. c #C45B5A",
"y. c #C55958",
"u. c #CC615F",
"i. c #C5635E",
"p. c #C27E5B",
"a. c #CC6362",
"s. c #CC6A66",
"d. c #C96967",
"f. c #D36463",
"g. c #D46B6A",
"h. c #D76968",
"j. c #CE706D",
"k. c #D3726F",
"l. c #D17D63",
"z. c #D66F70",
"x. c #CA7875",
"c. c #D67674",
"v. c #9D8476",
"b. c #AA8579",
"n. c #B68977",
"m. c #AF846C",
"M. c #A58451",
"N. c #C6867B",
"B. c #CE9074",
"V. c #EF977A",
"C. c #D9B26A",
"Z. c #E6B074",
"A. c #C99958",
"S. c #FDDA77",
"D. c #FDDB7A",
"F. c #F9D775",
"G. c #F1C47B",
"H. c #4D1982",
"J. c #5D3388",
"K. c #6B3C9C",
"L. c #6C4984",
"P. c #7C638E",
"I. c #7946AA",
"U. c #886D92",
"Y. c #986AA9",
"T. c #BF7C8D",
"R. c #AB78C7",
"E. c #9D6BCF",
"W. c #888595",
"Q. c #A78A87",
"!. c #B49687",
"~. c #B8A395",
"^. c #9D97A8",
"/. c #A991AC",
"(. c #B0ABB3",
"). c #D78A84",
"_. c #C79988",
"`. c #D79789",
"'. c #C99991",
"]. c #D99994",
"[. c #C58C85",
"{. c #E58C88",
"}. c #E5968B",
"|. c #EA9A96",
" X c #F39D96",
".X c #C9A695",
"XX c #D6A999",
"oX c #CFAA96",
"OX c #E8A697",
"+X c #FCA69B",
"@X c #FCA99E",
"#X c #F7A499",
"$X c #EAB59D",
"%X c #F7B39A",
"&X c #F3A786",
"*X c #DAB5A5",
"=X c #CFB1A9",
"-X c #EAAAA4",
";X c #F4ADA6",
":X c #FCADA3",
">X c #F4AFA8",
",X c #F9ACA7",
"<X c #E9B8A7",
"1X c #FDB2A5",
"2X c #FDB4AB",
"3X c #FEBBAD",
"4X c #F5B7A7",
"5X c #E9BBB3",
"6X c #FEBDB2",
"7X c #F7BAB5",
"8X c #EDAAB3",
"9X c #CB99A5",
"0X c #FFDC8B",
"qX c #FFD984",
"wX c #F3CC89",
"eX c #FEE285",
"rX c #FFE394",
"tX c #DAC3B3",
"yX c #E9C1AB",
"uX c #F4C1AC",
"iX c #FBC2AA",
"pX c #EACAB9",
"aX c #FEC2B4",
"sX c #FEC6BA",
"dX c #F4CCBA",
"fX c #FECBBD",
"gX c #F6C7B5",
"hX c #FED3BD",
"jX c #F8D4BF",
"kX c #D0B3E7",
"lX c #D3CAD4",
"zX c #EBCBC6",
"xX c #FECEC1",
"cX c #F9C8C3",
"vX c #F4D4C3",
"bX c #FED3C3",
"nX c #FED9C6",
"mX c #FED6CA",
"MX c #F6DCCD",
"NX c #FEDCCB",
"BX c #F6D8C7",
"VX c #FEDFD0",
"CX c #F6DCD4",
"ZX c #EAD4C7",
"AX c #FEE1CE",
"SX c #FEE3D2",
"DX c #FFEBDC",
"FX c #FBE4D6",
"GX c #EFE0D9",
"HX c #DBDCE7",
"JX c #FFEEE1",
"KX c #FFE9EA",
"LX c #FFF1E2",
"PX c #FFF8FD",
"IX c #F3E6F3",
"UX c #EAD8EE",
/* pixels */
"S.S.F.rX5.' x./ s z.f.f.f.f.f.f.a./ P K _ f.f.f.f.f.f.f.f.f.f.f.f.f.f.u.f.u.Y I U ;.h.h.) r U ;.h.f.f.f.f.f.f.f.f.f.a.c.;X>X>X>X",
"S.S.qXG.t d.9.2 ;.g.f.f.f.f.f.g. .L Q K t.f.f.f.f.f.f.f.f.f.f.f.f.f.h.y.,.d.a I I T y.g.;.0 U ) a.f.f.f.f.f.f.h.a.a.c.:X,X>X>X>X",
"D.D.rX} 4.w.a ! z.a.f.f.f.f.g.,.K Q 9 ( z.f.f.f.f.f.f.f.f.f.f.f.f.f.z.( %.d.! p r ~ T i.k.I 9 I ( g.f.f.f.f.f.a.j.|.,X2X>X>X>X>X",
"S.D.G.k 3XN.- >.g.f.f.f.f.f.u.R U K 8 :.f.f.f.f.f.f.f.f.f.f.f.f.f.f.:.0 ,.>.+.-Xf 7 W ( g.;.2 I K &.h.f.u.a.j.{.,X,X;X,X>X>X>X>X",
"S.rXM.M.gX].^ x.i.a.f.f.f.z._ K ! q / g.f.f.f.f.f.f.f.f.f.y.f.f.f.g.^ 5 >.>.' 7X%X' 8 E  .z.d y s r :.j.c.|.,X,X>X;X>X>X>X>X>X>X",
"F.eX[ XXgXr.[.3X{.z.f.u.g.;.s Q y 4 >.g.f.f.f.f.f.f.f.h.y.y.h.f.h.,.3.' *.-.O.dXuXuX@.3 Y *.*.= ] ^ c.:X2X2X>X>X>X>X>X>X>X>X>X>X",
"eXC.1.pX*XD >X,X2X,X|.).).~ 9 d = d u.a.f.f.f.f.f.f.f.f. .f.f.f.j.^ #X' -.*.+.AXAXuXuX3.e q.|.<.`.-X).7X;X;X,X>X>X,X>X<X>X>X>X>X",
"rX} n.dXw.r.aX;X>X,X,X7X|.8.-Xo.^ 9.z.z.h.d.d.a.f.u.f. . .h.u.g.] q.3X' 4.+.<.nXAXAXdXuX8.w.sX].<.7Xe.;X;X;X;X>X>X>X;X>X;X>X>X;X",
"0X[ <X7XO.'.7X>X>X>X;X2Xe.].7X@.,X2X,X,X#X X X X|.|. X).|.|.#X`.' 4X%XB.3X3.0.nXSXSXSXjXuX1.n.sXr.8X].].7X8X2X,X2X2X2X>X2X,X8X>X",
"n.3.7X].X.5X;X>X>X>X;X-X-.5Xw.e.7X:X2X2X7X2X2X,X:X,X{. X X|.|.[ `.iXOX-.w.1.m.NXSXSXSXSXhXuX+.X.k h -.! d.{.{.{.{.|. X|.|.,X,X2X",
"M.n.cX8.8.7X8X;X>X>X7X].e.cX#.-X;X X|.{.{.c.z.z.j.( 0 :.u.j.h 3.iX%XOXg -.3.n.AXAXDXSXSXSXAXuXg e , d 4 9 >.a.a.i.a.g.;...k.....",
"J *X5XX.].7X,X,X,X>X7X8.8.8.< X.o.s.t.a.y.u.f.h.%.0 _ g.k.$.' iX$XiXXX' +.m.n.SXSXSXSXSXSXAXnX$Xj < d s 9 $.h.f.f.f.f.y./ a.) s ",
"1.5XXXX.2X2X,X X{.).x.f y = q d $.h.f.f.f.f.h.;.9 s t.z.3.e %X4XyXAXw.o.+._.n.FXSXSXAXSXSXSXSXAXn.: 7 E 4 Q a.f.f.f.f.u.T a._ P ",
"0.xX[.@.-Xc.z.a.u.d.9.i d ; s P &.h.f.f.f.g.,.P 2 ( z.4.: `.%X%XhXDX3.o.3._..XFXSXSXDXSXSXSXSXAXbXO.= ! 6 s ;.g.f.f.f.u.T y._ L ",
").].h o.g.u.f.f.f.g.>.6 i = I P ;.f.f.f.g.&.I 8 0 9.9.- B.uX$XhXSXAXO.O.n._.*XFXSXSXSXSXSXSXSXAXAX*X1 g y 6  .h.f.f.f.f.R ;...K ",
"/ I = 8.g.f.f.f.f.g.%.< , 4 U L y.f.f.z.%.U 9 4 $.4.: 8.iX$XhXAXDXyXX.o.XXN.yXSXDXAXSXSXDXSXSXSXAXDX#.< 6 , / f.h.f.f.f.R ,. .L ",
"Y d 6 d.a.f.f.f.f.g.^ < = y U P u.g.a. .L K 2 d +.: 2.iX<XhXSXAXDX!.X.+.uXn.jXAXSXFXDXAXAXAXFXDXDXZXb.> j = I :.f.f.h.f.L &. .L ",
"Q 0 a j.t.f.f.f.a.z.! , - f U U a.y./ P ! = a ^ ; 3.iX$XhXAXAXAXDX6.X.q.yX~.AXAXSXAXAXFXLXLXFX(.Q.~.ZXj j = s ,.g.f.f.u.R  . .K ",
"Q 9 / z.;.f.f.f.f.z.j * , s Q Q  .P L Q 4 6 h = 3.iXyXhXSXSXSXDXmXO.O.OX*X*XAXFXLXLXLXMX=Xv.v.!.ZXDXLXD p p a $.h.f.f.u.L $.( P ",
"! 4 ,.j.&.h.f.f.a.z.p * 6 s U P L P Q a , g 1 w.iXyXhXAXAXSXSXDX].D 5.gXoXBXLXFXpX~.H J v..XGXDXFXGXLX6.> h a ( h.f.f.y.L  ./ P ",
"! q t.f. .f.f.f.f.9.< * 7 I U U U I d : p < B.uXuXAXAXSXSXSXCXDXe.O.`.<X!..Xm.1.J 6.~.jXDXDXFXAXFXGXLX~.> ' d ~ u.f.f.y.L  ./ P ",
"d 7 d.u. .f.f.f.f.d.6 + , r Y I ~ ! < < p '.uXgXSXSXAXSXFXSXDXdX' 0.uX0.J M.n.oXrXAXFXAXMXGXSXDXDXDXLX~.@ #.h s a.f.h.,.K ( ) P ",
"f y z.y./ f.f.f.f.g.< 1 5 7 8 , p * + k XXyXgXjXNXSXSXFXSXVXJX!.' <XdX*XjXdXnXAXAXBXBXSXLXJXFXZXtXQ.J H @ @ = f t.f.h. .L ( ) P ",
"f s z.y.R t.h.f.f.j.6 , r E E g + > O.1.1.1.m.n.pXDXSXSXSXFXMXD oXgXtXjXnXpXyX=X~.~.Q.v.J u & o X   . . X @ p f :.g.f._ L / P I ",
"i d z.y.R y.f.f.f.f.7 , e E d < #.$XpXdXdXyXyXgXSXSXSXSXFXDXv.b.nXgXnXjXoX.X~.v.S & O O o # $ o N (.^.& . k #.9 t.f.a.T R ) U Y ",
"i d z.y.L  .h.f.u.h.y , r f p `.uXuXnXAXSXAXAXAXSXSXSXSXDXtXb.FXpXAXAXtX=X7.@ . . & $ z z z x z o W.HXP.  Q.8.5 t.h.y.L P U Q 5 ",
"y d z.y.L ( f.f.f.j.y < 3 ] uXhXAXLXAXpXtX*XyXpXAXDXSXDXAX=XFXvXBXSXAXFXv.. @ H (.PX^.l x x x c $ F lXH   '.8.5 t.z.&.L P I d q ",
"y Y z.y.L P u.h.u.z.i > D !.v.J S S S u S S 7.Q.tXSXSXSXMXSXNXBXAXAXSXSX!.S lX^.P.UXP.l c c c c N F IXH w XX8.5 t.g._ L P ) 7 7 ",
"y d z.y.K K &.h.f.:.w u @ . X X # o # # o O . u pXDXSXSXFXFXNXFXVXVXAXAXpXMXlXlXN L.l x c n c n v F PX(.#.<X3.9 t.f.T P U I 2 d ",
"i d z.;.K 9 ( a.g.:.1   X ^.W.HXPXB z x z l @ W.BXAXAXFXSXAXSXVXVXVXSXAXFXFXGXPXG z c n n n n M Z L.PXGX6.aX3.y g.y.P U Q s 2 ! ",
"h i g.;.P 0 K t.a.j.X.  & HXH W.lXm l c x x $ /.DXAXAXAXAXSXSXSXSXVXAXNXBXAXZXPX^.l M M V H.V J.Z U.PXZX0.xX-.s j. .P I I - 9 Q ",
"#.6 j.y.U s 0 $.g.z.@.r.& (.(.B Z l c c c v l U.LXFXFXAXSXNXNXSXVXVXAXNXNXAXZXLXIXv J.H.M V H.kXL./.KXyXn.xXO.E z.T P Q a - I P ",
"m.: s.t.P U 5 U t.h.-.0.'.7.PXN n n n n n m c P.KXMXSXNXSXNXVXVXNXNXNXmXbXbXbXvXPXU.Z E.I.I.E.R.b cXcX8X!.sXo.o.:.K U I - 7 Q U ",
"&Xt 4.a.U Q 0 9 %.g.9.o.gX=XPXP.m V n M C M m P.KXBXNXNXNXNXNXNXNXNXmXbXbXxXxXcXCXIXA Z R.R.Y.A r.7X7X].`.sX! %...K Q 9 ; I I U ",
"0Xt *.f.) P I 8 U :.j.] XXbXKXlXv J.C H.V K.J.U.KXMXNXNXNXNXNXNXmXbXbXbXbXfXsXsXgXmX9Xu r.e.T.8X6X2X2X}.OX3X! ,.U I ! - 7 Q U P ",
"rX} ] z./ Y ~ 9 9 ( k.$.N.bXCXPXL.V I.V n kXY.U.KXBXbXmXnXbXbXbXbXbXxXxXsXfXaX7X6X2X8X7X7X7X,X:X;X:X1XOX1X#X! o.Y ~ 6 = Y U P P ",
"rXA.` c.( Y U Y 4 d ,.:.2.fXvXVXKXb L.E.R.Y.% =XmXxXbXbXbXbXbXbXbXbXxXsXfXaX6X3X2X1X4X:X:X+X+X&X X@X+X#X2XB.E / I d ; y I U U U ",
"D.wX` j._ L U Q , 6 ) 4.o.4XxXzXFX=X% L.U.U.T.cXcXsXxXxXxXxXbXxXfXfXfXsXaXaX3X2X2X1X6X:X X+X+X X+X+X+X+X3Xd.d I ! - 2 d U U U U ",
"S.0X2.5.*.L P I 6 * s ( o.`.fXsX7XcXcX8X7XcXcXsXsXfXsXsXfXbXhXfXfXfXfXaXaXiX3X2X:X#X3X+X+X+X X+X+X X+X@X3X+.s Q a ; a U U P U P ",
"S.rXA.2.:.L P I 6 , - ! ! 4.7X6X6X3X7X6XiX3X3X6X6XsXsXfXfXfXsXfXfXfXsXaX6X3X1X1X@X:X#X+X+X+X+X+X+X+X@X1X;Xd Y d = 4 Y U U U P U ",
"S.qXG.} t.R R ) , < = 7 ! I %X3X2X3X#X1X2X1X3X4X3XaXaXfXsXfXfXfXfXsXsXaX6X3X2X2X@X@X@X:X@X@X@X@X+X@X:X2X).a h : q a U U P P U P ",
"S.D.0X2.4.T P Q 6 , 6 = d e x.4X3X6XOX1X:X1X2X1X3X6XsXsXaXfXfXfXfXaXaXaX6X3X3X@X1X1X:X1X1X@X:X1X1X1X2XaX@.e f r 8 I I U U U P U ",
"D.S.0XA.=.$.K Q 7 = 7 4 - d ^ @X:X#X@X1X@X2X1X2X6XaXaXfXfXxX4XaXfXfXsXaXaXiX2X,X3X2X2X1X1X1X2X2X1X3X6X-Xa r N.r s Q P U U T U U ",
"S.S.D.G.2.,.K Q i = 6 5 , : d {.:X#X,X:X1X2X%X3X6XaXsXfXsXfXOXgXfXfXsXaXaXaX3X3X3X1X3X3X3X3X3X3XaX3XfX3.e `.`.8 U U U P P U U U ",
"S.S.F.0X5.=.U U f ; 7 6 < 6 W ] 2X1X1X@X3X3X4X6XaXfXfXsXxXfXbXfXhXfXfXfXsXaXaXaXaXaX7XaX6XaX6XaXaXfXOX' `.%Xd.5 U U U U P U P U ",
"S.S.F.0XZ.*.( K E = 4 7 - h q.3 N.aX>X3X3X3XaXaXsXfXsXbXxXxXbXbXfXbXxXsXfXfXsXsXsXaXaXaXfXaXfXfXfXhX<XOX&X%X2.i ~ U P U P U P U ",
"S.D.F.0XC.] *.K ~ - , 7 6 5 `.q.e -XaXaXaXaXsXsXfXfXxXbXbXbXbXbXbXbXbXbXfXxXbXsXsXXX3XbXfXfXxXbXhXhX4XuX%X&Xi ! U U U U P P U U ",
"S.S.F.qX5.*.=.U I 5 = 6 e 5 4.4X[.1.7XsXaXfXfXbXbXbXbXbXbXNXnXbXbXnXbXbXNXgX*XXX_._.bXbXbXbXbXbXbXfXhX$XiXg e ( Y U P P U P T U ",
"S.S.S.0X| i.=.( Y s ; 6 7 d i -X7X<X<XxXxXfXxXbXbXbXnXmX*XdXbXnXNXnXnXgXXX.X*XxXbXbXbXmXbXNXbXNXnXnXiX4X1.* ] U I U s P U U P U ",
"S.D.D.G.{ s.4.$.I I = < 9 ! 7 X.bXcXxXxXbXbXbXmXmXNXNXNXvX.XoX=X*X*XoX.XpXNXVXNXNXNXNXNXNXNXNXnXNXgXyX2.O.O.o.P I K s U P U P U ",
"S.D.D.G.[ s.s.,./ E 4 = s I ~ 6 #.VXmXmXmXNXNXNXNXNXNXVXSXNXVXNXBXpXvXSXSXNXNXVXNXNXNXVXNXNXNXAXhX$X[ 3.`.! %.K U 9 Y U P U U U ",
"S.D.D.Z.] j.a.f.{ U i = r U Y ! < O.mXVXBXNXNXNXNXNXVXSXSXVXVXSXSXSXSXNXAXNXVXVXSXNXVXVXVXSXNXbX`.[ 5.%X*.] o.K Y s ~ U U R P U ",
"S.S.D.C.[ x.a.h.t.Q d - 9 U U U ~ 6 j *XJXSXMXSXSXVXVXSXVXSXSXVXSXVXVXSXSXAXVXVXSXSXVXVXAXAXbXq.[ B.&X&XT >.Q I 7 I $.P U U U P ",
"S.S.D.G.[ l.a.i.j.,.I 4 8 Q U U U Q f > #.zXJXJXVXVXVXSXSXVXVXVXSXSXSXSXSXSXSXSXSXVXSXNXSXyX+.} &XV.V.A.W :.I 7 q %.$.K U P U T ",
"S.S.D.C.W k.%.;.h.g.%.y q E I U U U Q ! * > <.=XDXFXFXSXSXSXSXSXSXSXSXSXSXSXSXSXAXAXSXAX_.[ l.&XV.V.&X] *.%.f ; ) i./ P P U P P ",
"S.D.eXC.[ h.U &.g.u.j.%.q d U P U U P I g > * @ D ~.MXFXSXVXSXSXSXSXSXSXAXDXSXSXSXAXjX0.' `.&XV.V.Z.V.W a.~ < , >.t.P ) P U T P "
};
